<?xml version="1.0" standalone="no"?>
<!DOCTYPE svg PUBLIC "-//W3C//DTD SVG 20010904//EN"
 "http://www.w3.org/TR/2001/REC-SVG-20010904/DTD/svg10.dtd">
<svg version="1.0" xmlns="http://www.w3.org/2000/svg"
 width="176.000000pt" height="119.000000pt" viewBox="0 0 176.000000 119.000000"
 preserveAspectRatio="xMidYMid meet">

<g transform="translate(0.000000,119.000000) scale(0.100000,-0.100000)"
fill="#000000" stroke="none">
<path d="M1056 1144 c-21 -20 -20 -25 10 -69 14 -21 34 -61 45 -89 11 -28 27
-61 34 -72 11 -17 12 -30 3 -60 -13 -48 -4 -125 18 -159 22 -34 52 -33 60 3 3
15 7 32 8 37 2 6 10 -3 18 -20 9 -16 28 -41 43 -55 24 -23 24 -20 -9 34 -20
33 -38 68 -42 78 -8 27 -30 6 -38 -37 -8 -41 -19 -44 -34 -10 -15 33 -15 100
0 141 10 28 9 36 -4 51 -9 10 -26 43 -37 74 -12 30 -32 70 -46 89 -14 19 -25
38 -25 42 0 15 45 8 78 -12 18 -11 42 -20 55 -20 39 -1 106 -38 162 -91 44
-41 66 -75 109 -164 51 -105 57 -114 93 -125 43 -15 113 -58 113 -71 0 -5 -17
-9 -37 -9 -85 0 -78 -39 18 -95 33 -19 63 -35 66 -35 12 0 -33 43 -69 66 -21
14 -38 28 -38 33 0 5 20 12 45 15 25 4 45 11 45 16 0 14 -71 71 -118 93 -42
20 -49 29 -92 122 -26 55 -66 121 -89 146 -51 58 -127 108 -178 116 -21 4 -58
17 -82 30 -52 27 -64 28 -85 7z"/>
<path d="M76 463 c-5 -30 -25 -299 -26 -335 0 -5 14 -8 30 -8 l30 0 1 103 c0
56 4 125 7 152 l7 50 49 -153 c46 -146 50 -153 73 -150 22 3 29 17 73 151 26
82 50 142 53 133 3 -8 9 -76 13 -150 l7 -136 28 0 c28 0 29 2 29 48 0 57 -18
278 -25 310 -4 18 -12 22 -43 22 l-38 0 -43 -136 c-23 -75 -46 -133 -51 -128
-4 5 -26 65 -48 134 l-41 125 -39 3 c-39 3 -40 2 -46 -35z"/>
<path d="M493 385 c4 -8 22 -67 42 -132 20 -65 38 -123 40 -130 7 -23 -35 -63
-66 -63 -24 0 -30 -4 -27 -18 6 -30 69 -28 107 4 52 43 115 189 136 312 7 41
6 42 -22 42 -27 0 -28 -2 -44 -83 -9 -45 -22 -95 -29 -112 -11 -26 -14 -27
-18 -10 -2 11 -17 62 -34 113 -28 90 -30 92 -60 92 -22 0 -29 -4 -25 -15z"/>
</g>
</svg>
